<svg width="13" height="17" viewBox="0 0 13 17" fill="none" xmlns="http://www.w3.org/2000/svg">
<path d="M8.29882 3.15332C7.83398 3.7207 7.06836 4.1582 6.30957 4.10352C6.20703 3.33789 6.58984 2.52441 7.01367 2.01855C7.50586 1.45117 8.32617 1.02051 9.00293 1C9.08496 1.79297 8.7705 2.5791 8.29882 3.15332ZM8.98925 4.25391C9.41308 4.29492 10.6504 4.4248 11.4502 5.59375C11.3955 5.62793 9.9873 6.46191 10.001 8.16406C10.0146 10.2012 11.7783 10.8848 11.8057 10.8848C11.7988 10.9326 11.5254 11.8486 10.8828 12.8125C10.3018 13.6328 9.73437 14.4463 8.80468 14.46C7.90234 14.4873 7.6289 13.9268 6.58984 13.9268C5.55078 13.9268 5.22949 14.4463 4.38183 14.4873C3.49316 14.5146 2.80957 13.5986 2.24902 12.7646C1.10058 11.1035 0.211911 8.04102 1.38769 5.97656C1.98925 4.95801 3.03515 4.30176 4.17675 4.29492C5.05859 4.28125 5.8789 4.88281 6.41211 4.88281C6.9248 4.88281 7.88183 4.17188 8.98925 4.25391Z" fill="#11100F" style="fill:#11100F;fill:color(display-p3 0.0667 0.0627 0.0588);fill-opacity:1;"/>
</svg>
