<svg width="419" height="380" viewBox="0 0 419 380" fill="none" xmlns="http://www.w3.org/2000/svg">
<path fill-rule="evenodd" clip-rule="evenodd" d="M381.34 0.21998C391.642 -1.01606 403.06 2.97901 410.512 11.6438C418.589 21.0352 420.687 34.2036 415.287 48.1887C409.501 65.8018 397.253 82.7742 382.282 98.0256C369.003 111.553 353 124.318 335.927 135.614V101.384C345.653 94.0377 354.59 86.3111 362.323 78.4338C375.841 64.6621 384.937 51.1888 388.808 39.1809L388.95 38.7415L389.121 38.3128C390.37 35.1665 390.402 33.163 390.26 32.1038C390.123 31.0823 389.76 30.4069 389.307 29.8801C388.132 28.5139 386.024 27.8274 384.673 27.9895C382.357 28.2677 376.567 30.167 368.158 33.387C360.843 36.1879 351.916 39.8305 345.943 41.8215C335.137 45.4234 324.686 48.7708 314.174 51.762C304.203 45.8596 291.896 43.3989 279.669 45.7669C256.614 50.2317 233.386 52.3366 208.979 52.345C184.224 52.7312 160.615 50.2686 137.798 45.677C125.588 43.2198 113.322 45.6556 103.416 51.5657C93.1361 48.6246 82.9051 45.3447 72.3356 41.8215C66.3626 39.8305 57.4358 36.1879 50.1208 33.387C41.7104 30.1667 35.9204 28.2673 33.6051 27.9895C32.254 27.8279 30.1463 28.5141 28.9713 29.8801C28.5184 30.4069 28.1551 31.0822 28.0182 32.1038C27.8852 33.0967 27.9062 34.9194 28.9381 37.7356L29.1579 38.3128L29.3795 38.8713L29.5524 39.4465C31.9725 47.4996 39.918 59.0743 53.5661 72.6126C61.7157 80.6966 71.3937 88.9866 82.0319 97.0637V131.497C64.0507 119.253 47.3251 105.816 33.8698 92.469C19.5959 78.3099 7.58455 62.8763 2.94791 48.0745C-2.39636 34.132 -0.288406 21.0096 7.76626 11.6438C15.1018 3.11431 26.2798 -0.889536 36.4538 0.166269L36.9381 0.21998V0.220957C43.4282 0.999849 52.788 4.46074 60.1217 7.26881C68.5508 10.4963 75.9652 13.5502 81.1794 15.2883C122.395 29.0268 156.291 38.3185 209.138 38.3186C261.986 38.3186 295.884 29.0269 337.099 15.2883C342.313 13.5502 349.728 10.4953 358.157 7.26783C365.491 4.4598 374.85 0.999919 381.34 0.220957V0.21998Z" fill="#C73C5E" style="fill:#C73C5E;fill:color(display-p3 0.7800 0.2340 0.3697);fill-opacity:1;"/>
<path fill-rule="evenodd" clip-rule="evenodd" d="M68.0481 88.0637C68.0481 49.5315 105.589 24.9309 140.558 31.9681C162.48 36.3795 185.089 38.7323 208.761 38.363L208.868 38.3614H208.974C232.559 38.3532 254.895 36.3203 277.01 32.0375C312.008 25.26 349.911 49.8262 349.911 88.5714V238.468C349.911 316.302 286.814 379.399 208.98 379.399C131.145 379.399 68.0481 316.302 68.0481 238.468V88.0637ZM135.04 59.3864C114.525 55.258 96.0163 69.9991 96.0163 88.0637V238.468C96.0163 300.856 146.592 351.431 208.98 351.432C271.368 351.431 321.944 300.856 321.944 238.468V88.5714C321.944 70.4347 303.174 55.4586 282.328 59.4954C262.888 63.26 243.366 65.4034 223.239 66.0864V263.774C223.239 271.497 216.978 277.758 209.255 277.758C201.533 277.758 195.272 271.497 195.272 263.774V70.524C195.272 68.1499 193.379 66.2115 191.007 66.1209C171.731 65.3848 153.124 63.0256 135.04 59.3864Z" fill="#E93C67" style="fill:#E93C67;fill:color(display-p3 0.9137 0.2353 0.4039);fill-opacity:1;"/>
<path fill-rule="evenodd" clip-rule="evenodd" d="M277.01 32.0377C304.871 26.6427 334.572 41.1107 345.528 66.7819H311.288C303.889 60.5723 293.401 57.3516 282.328 59.4958C262.888 63.2603 243.366 65.4036 223.24 66.0866V66.7819H223.179V52.2887C223.179 44.539 216.724 38.3593 208.974 38.362H208.975C232.559 38.3538 254.895 36.3205 277.01 32.0377ZM208.761 38.3639C205.802 38.4101 202.86 38.4132 199.933 38.3756L202.131 38.3952C204.332 38.4078 206.542 38.3976 208.761 38.3629L208.869 38.362L208.761 38.3639ZM195.272 38.279C196.077 38.3014 196.884 38.3213 197.692 38.3376C196.884 38.3213 196.077 38.3024 195.272 38.2799V38.279Z" fill="url(#paint0_linear_53_2)"/>
<defs>
<linearGradient id="paint0_linear_53_2" x1="216.339" y1="53.3752" x2="281.73" y2="48.724" gradientUnits="userSpaceOnUse">
<stop stop-color="#BF3252" style="stop-color:#BF3252;stop-color:color(display-p3 0.7500 0.1964 0.3219);stop-opacity:1;"/>
<stop offset="1" stop-color="#E93D64" stop-opacity="0" style="stop-color:none;stop-opacity:0;"/>
</linearGradient>
</defs>
</svg>
