<svg width="34" height="26" viewBox="0 0 34 26" fill="none" xmlns="http://www.w3.org/2000/svg">
<path d="M24.9204 21.8328C24.9204 22.406 24.5094 22.8278 23.9254 22.8278C23.3521 22.8278 22.9303 22.406 22.9303 21.8328V20.708H21.4054V21.8328C21.4054 22.406 20.9836 22.8278 20.4104 22.8278C19.8263 22.8278 19.4153 22.406 19.4153 21.8328V20.708H17.8795V21.8328C17.8795 22.406 17.4577 22.8278 16.8845 22.8278C16.3113 22.8278 15.8895 22.406 15.8895 21.8328V20.708H14.3537V21.8328C14.3537 22.406 13.9427 22.8278 13.3587 22.8278C12.7855 22.8278 12.3637 22.406 12.3637 21.8328V20.708H10.8387V21.8328C10.8387 22.406 10.4169 22.8278 9.84368 22.8278C9.25964 22.8278 8.84866 22.406 8.84866 21.8328V20.708C6.50171 20.6755 5.25793 19.4209 5.25793 17.074V9.34097C5.25793 6.99402 6.50171 5.72861 8.84866 5.70698V4.57136C8.84866 3.99814 9.25964 3.57634 9.84368 3.57634C10.4169 3.57634 10.8387 3.99814 10.8387 4.57136V5.70698H12.3637V4.57136C12.3637 3.99814 12.7855 3.57634 13.3587 3.57634C13.9427 3.57634 14.3537 3.99814 14.3537 4.57136V5.70698H15.8895V4.57136C15.8895 3.99814 16.3113 3.57634 16.8845 3.57634C17.4577 3.57634 17.8795 3.99814 17.8795 4.57136V5.70698H19.4153V4.57136C19.4153 3.99814 19.8263 3.57634 20.4104 3.57634C20.9836 3.57634 21.4054 3.99814 21.4054 4.57136V5.70698H22.9303V4.57136C22.9303 3.99814 23.3521 3.57634 23.9254 3.57634C24.5094 3.57634 24.9204 3.99814 24.9204 4.57136V5.70698C27.2673 5.72861 28.5111 6.99402 28.5111 9.34097V17.074C28.5111 19.4209 27.2673 20.6755 24.9204 20.708V21.8328ZM9.12986 18.2961H24.6392C25.5801 18.2961 26.0993 17.8203 26.0993 16.8252V9.58972C26.0993 8.5947 25.5801 8.11882 24.6392 8.11882H9.12986C8.1781 8.11882 7.66978 8.5947 7.66978 9.58972V16.8252C7.66978 17.8203 8.1781 18.2961 9.12986 18.2961Z" fill="#30D158" style="fill:#30D158;fill:color(display-p3 0.1882 0.8196 0.3451);fill-opacity:1;"/>
</svg>
