<svg width="34" height="26" viewBox="0 0 34 26" fill="none" xmlns="http://www.w3.org/2000/svg">
<path d="M6.42437 22.0815C4.02334 22.0815 2.75793 20.8161 2.75793 18.4476V7.92415C2.75793 5.54475 4.02334 4.29016 6.42437 4.29016H26.8872C29.2774 4.29016 30.5428 5.55557 30.5428 7.92415V18.4476C30.5428 20.8161 29.2774 22.0815 26.8872 22.0815H6.42437ZM6.62986 19.6697H26.6817C27.6226 19.6697 28.1417 19.1938 28.1417 18.1988V8.1729C28.1417 7.17788 27.6226 6.69119 26.6817 6.69119H6.62986C5.6781 6.69119 5.16978 7.17788 5.16978 8.1729V18.1988C5.16978 19.1938 5.6781 19.6697 6.62986 19.6697ZM7.70059 10.7902C7.37612 10.7902 7.18145 10.5956 7.18145 10.2711V9.26526C7.18145 8.9408 7.37612 8.74612 7.70059 8.74612H8.69561C9.02007 8.74612 9.21475 8.9408 9.21475 9.26526V10.2711C9.21475 10.5956 9.02007 10.7902 8.69561 10.7902H7.70059ZM11.075 10.7902C10.7505 10.7902 10.5559 10.5956 10.5559 10.2711V9.26526C10.5559 8.9408 10.7505 8.74612 11.075 8.74612H12.07C12.3945 8.74612 12.5892 8.9408 12.5892 9.26526V10.2711C12.5892 10.5956 12.3945 10.7902 12.07 10.7902H11.075ZM14.4494 10.7902C14.125 10.7902 13.9303 10.5956 13.9303 10.2711V9.26526C13.9303 8.9408 14.125 8.74612 14.4494 8.74612H15.4444C15.7689 8.74612 15.9636 8.9408 15.9636 9.26526V10.2711C15.9636 10.5956 15.7689 10.7902 15.4444 10.7902H14.4494ZM17.8238 10.7902C17.4994 10.7902 17.3047 10.5956 17.3047 10.2711V9.26526C17.3047 8.9408 17.4994 8.74612 17.8238 8.74612H18.8188C19.1433 8.74612 19.338 8.9408 19.338 9.26526V10.2711C19.338 10.5956 19.1433 10.7902 18.8188 10.7902H17.8238ZM21.2415 10.7902C20.8846 10.7902 20.6791 10.5956 20.6791 10.2711V9.26526C20.6791 8.9408 20.8846 8.74612 21.2415 8.74612H22.1933C22.5177 8.74612 22.7124 8.9408 22.7124 9.26526V10.2711C22.7124 10.5956 22.5177 10.7902 22.1933 10.7902H21.2415ZM24.5727 10.7902C24.2482 10.7902 24.0535 10.5956 24.0535 10.2711V9.26526C24.0535 8.9408 24.2482 8.74612 24.5727 8.74612H25.5677C25.8921 8.74612 26.0868 8.9408 26.0868 9.26526V10.2711C26.0868 10.5956 25.8921 10.7902 25.5677 10.7902H24.5727ZM7.70059 14.2079C7.37612 14.2079 7.18145 14.0132 7.18145 13.6888V12.6829C7.18145 12.3585 7.37612 12.1638 7.70059 12.1638H8.69561C9.02007 12.1638 9.21475 12.3585 9.21475 12.6829V13.6888C9.21475 14.0132 9.02007 14.2079 8.69561 14.2079H7.70059ZM11.075 14.2079C10.7505 14.2079 10.5559 14.0132 10.5559 13.6888V12.6829C10.5559 12.3585 10.7505 12.1638 11.075 12.1638H12.07C12.3945 12.1638 12.5892 12.3585 12.5892 12.6829V13.6888C12.5892 14.0132 12.3945 14.2079 12.07 14.2079H11.075ZM14.4494 14.2079C14.125 14.2079 13.9303 14.0132 13.9303 13.6888V12.6829C13.9303 12.3585 14.125 12.1638 14.4494 12.1638H15.4444C15.7689 12.1638 15.9636 12.3585 15.9636 12.6829V13.6888C15.9636 14.0132 15.7689 14.2079 15.4444 14.2079H14.4494ZM17.8238 14.2079C17.4994 14.2079 17.3047 14.0132 17.3047 13.6888V12.6829C17.3047 12.3585 17.4994 12.1638 17.8238 12.1638H18.8188C19.1433 12.1638 19.338 12.3585 19.338 12.6829V13.6888C19.338 14.0132 19.1433 14.2079 18.8188 14.2079H17.8238ZM21.2415 14.2079C20.8846 14.2079 20.6791 14.0132 20.6791 13.6888V12.6829C20.6791 12.3585 20.8846 12.1638 21.2415 12.1638H22.1933C22.5177 12.1638 22.7124 12.3585 22.7124 12.6829V13.6888C22.7124 14.0132 22.5177 14.2079 22.1933 14.2079H21.2415ZM24.5727 14.2079C24.2482 14.2079 24.0535 14.0132 24.0535 13.6888V12.6829C24.0535 12.3585 24.2482 12.1638 24.5727 12.1638H25.5677C25.8921 12.1638 26.0868 12.3585 26.0868 12.6829V13.6888C26.0868 14.0132 25.8921 14.2079 25.5677 14.2079H24.5727ZM7.70059 17.6148C7.37612 17.6148 7.18145 17.4201 7.18145 17.0956V16.1006C7.18145 15.7761 7.37612 15.5815 7.70059 15.5815H8.69561C9.02007 15.5815 9.21475 15.7761 9.21475 16.1006V17.0956C9.21475 17.4201 9.02007 17.6148 8.69561 17.6148H7.70059ZM11.1507 17.6148C10.7722 17.6148 10.5559 17.3985 10.5559 17.0199V16.1763C10.5559 15.7978 10.7722 15.5815 11.1507 15.5815H22.1176C22.4961 15.5815 22.7124 15.7978 22.7124 16.1763V17.0199C22.7124 17.3985 22.4961 17.6148 22.1176 17.6148H11.1507ZM24.5727 17.6148C24.2482 17.6148 24.0535 17.4201 24.0535 17.0956V16.1006C24.0535 15.7761 24.2482 15.5815 24.5727 15.5815H25.5677C25.8921 15.5815 26.0868 15.7761 26.0868 16.1006V17.0956C26.0868 17.4201 25.8921 17.6148 25.5677 17.6148H24.5727Z" fill="#3CD3FE" style="fill:#3CD3FE;fill:color(display-p3 0.2353 0.8275 0.9961);fill-opacity:1;"/>
</svg>
