<svg width="34" height="26" viewBox="0 0 34 26" fill="none" xmlns="http://www.w3.org/2000/svg">
<path d="M25.7598 2.22574C27.7281 0.798203 30.2155 3.22069 28.7879 5.25385C28.3878 5.80539 24.3323 11.7643 21.0014 15.5386C20.1254 12.9106 18.0922 10.8775 15.4751 10.0123C19.2494 6.68138 25.2083 2.62588 25.7598 2.22574ZM15.421 15.5819C14.5558 14.7167 13.4527 14.1002 12.4794 13.9164C12.62 13.1269 12.9877 12.4456 13.6258 11.7643C13.7339 11.6453 13.8421 11.5372 13.961 11.429C16.7728 11.8292 19.1629 14.2408 19.5738 17.0526C19.4657 17.1716 19.3575 17.2798 19.2278 17.3879C18.5573 18.0152 17.8976 18.372 17.0973 18.5234C16.9026 17.5501 16.2862 16.447 15.421 15.5819ZM4.98485 22.2329C4.4333 21.5624 4.33597 20.9567 4.83344 20.5566C5.42825 20.0916 6.20691 20.5242 7.07208 19.8536C8.03458 19.1182 7.35326 17.4744 9.05116 16.155C10.7166 14.8032 13.2148 15.2466 14.7072 17.1392C16.3511 19.2372 16.0374 21.8111 13.8529 23.5198C11.2357 25.5746 7.05045 24.85 4.98485 22.2329Z" fill="#DB34F2" style="fill:#DB34F2;fill:color(display-p3 0.8588 0.2039 0.9490);fill-opacity:1;"/>
</svg>
