<svg width="34" height="26" viewBox="0 0 34 26" fill="none" xmlns="http://www.w3.org/2000/svg">
<path d="M19.7855 3.08965C21.6891 1.15369 24.2739 1.0239 26.2207 2.95986C28.1783 4.90664 28.0377 7.50234 26.1018 9.40586L19.7855 3.08965ZM16.8221 24.0824C16.1624 24.0824 15.6432 23.5741 15.6432 22.9143V17.3011L10.4086 22.1573C9.93269 22.6007 9.31621 22.6439 8.71055 22.1032L6.87192 23.5633C6.60154 23.7796 6.25544 23.7579 6.00669 23.5092L5.68223 23.1847C5.43347 22.936 5.41184 22.5791 5.61733 22.3303L7.07742 20.4809C6.53665 19.8644 6.56909 19.2587 7.02334 18.772L17.0492 7.99985C16.9195 6.71282 17.4386 5.42578 18.5526 4.31179L24.8688 10.628C23.7656 11.7528 22.4461 12.2828 21.1807 12.1638L18.0226 15.0948L17.9902 22.9143C17.9902 23.5741 17.471 24.0824 16.8221 24.0824ZM8.49424 19.7238L9.46763 20.6972L19.1691 11.4175C18.9095 11.2445 18.6499 11.0282 18.4012 10.7686C18.1632 10.5198 17.9577 10.2603 17.7847 9.97908L8.49424 19.7238Z" fill="#FFD600" style="fill:#FFD600;fill:color(display-p3 1.0000 0.8392 0.0000);fill-opacity:1;"/>
</svg>
